# xmcd
#
# Track frame offsets:
#	150
#	34159
#	61862
#	89805
#	119225
#	141402
#	168123
#	194005
#	212415
#	233039
#	241974
#	249840
#	261517
#	270438
#	281171
#	291589
#	304055
#	316612
#	325816
#
# Disc length: 4468 seconds
#
# Revision: 0
# Processed by: cddbd v1.5.2PL0 Copyright (c) Steve Scherf et al.
# Submitted via: EZCDAudioConverter 2.2.2.1
#
DISCID=25117213
DTITLE=Sammy Price - Barrelhouse, Boogie and After Hours
DYEAR=2017
DGENRE=Jazz and Blues
TTITLE0=Jumpin' On 57th
TTITLE1=Sam's Pretty Blues
TTITLE2=If I Could Be With You 
TTITLE3=Pete's Delta Bound 
TTITLE4=Jonah Whales Again 
TTITLE5=Stormy Weather 
TTITLE6=Walkin' And Shoutin' The Boogie
TTITLE7=Please Don't Talk About Me When I'm Gone 
TTITLE8=Manhattan Blues
TTITLE9=Roll 'Em Sam
TTITLE10=Kansas City Boogie Woogie Stomp 
TTITLE11=Boogie Cha Cha 
TTITLE12=Levee 
TTITLE13=Saint's Boogie
TTITLE14=Blue Drag 
TTITLE15=Honky Tonk Caboose 
TTITLE16=Pack Up 'N Boogie
TTITLE17=Chicken Strut 
TTITLE18=Boogie Woogie Slop 
EXTD=
EXTT0=
EXTT1=
EXTT2=
EXTT3=
EXTT4=
EXTT5=
EXTT6=
EXTT7=
EXTT8=
EXTT9=
EXTT10=
EXTT11=
EXTT12=
EXTT13=
EXTT14=
EXTT15=
EXTT16=
EXTT17=
EXTT18=
PLAYORDER=
